<?xml version="1.0" encoding="UTF-8"?>
<!DOCTYPE svg PUBLIC "-//W3C//DTD SVG 1.1//EN" "http://www.w3.org/Graphics/SVG/1.1/DTD/svg11.dtd">
<!-- Creator: CorelDRAW 2021 (64-Bit) -->
<svg xmlns="http://www.w3.org/2000/svg" xml:space="preserve" width="300mm" height="300mm" version="1.1" style="shape-rendering:geometricPrecision; text-rendering:geometricPrecision; image-rendering:optimizeQuality; fill-rule:evenodd; clip-rule:evenodd"
viewBox="0 0 30000 30000"
 xmlns:xlink="http://www.w3.org/1999/xlink"
 xmlns:xodm="http://www.corel.com/coreldraw/odm/2003">
 <defs>
  <style type="text/css">
   <![CDATA[
    .fil1 {fill:#003F4D;fill-rule:nonzero}
    .fil0 {fill:#003F4D;fill-rule:nonzero}
    .fil2 {fill:#F3A12D;fill-rule:nonzero}
    .fil3 {fill:#F6A42C;fill-rule:nonzero}
   ]]>
  </style>
 </defs>
 <g id="Capa_x0020_1">
  <metadata id="CorelCorpID_0Corel-Layer"/>
  <polygon class="fil0" points="6187.89,22166.29 5868.69,22166.29 6940.29,19821.49 7247.49,19821.49 8595.09,22769.89 8266.29,22769.89 7091.49,20145.49 6186.69,22166.29 "/>
  <polygon class="fil0" points="10765.89,21749.89 10765.89,22769.89 10458.69,22769.89 10458.69,21749.89 9648.69,20423.89 9981.09,20423.89 10623.09,21475.09 11634.69,19819.09 11946.69,19819.09 10767.09,21748.69 "/>
  <polygon class="fil0" points="17350.29,22166.29 17031.09,22166.29 18102.69,19821.49 18409.89,19821.49 19757.49,22769.89 19428.69,22769.89 18253.89,20145.49 17349.09,22166.29 "/>
  <path class="fil0" d="M23104.29 22769.89l-674.4 -948c-75.6,8.4 -151.2,13.2 -236.4,13.2l-792 0 0 331.2 -312 0 0 -2344.8 1104 0c750,0 1204.8,379.2 1204.8,1011.6 0,463.2 -244.8,787.2 -674.4,926.4l720 1011.6 -340.8 0 1.2 -1.2zm-16.8 -1938c0,-471.6 -312,-741.6 -901.2,-741.6l-783.6 0 0 1478.4 783.6 0c589.2,0 901.2,-273.6 901.2,-736.8z"/>
  <path class="fil1" d="M13506.69 22523.89l1316.4 0c0,0 3.6,0 6,0 148.8,0 289.2,-57.6 396,-163.2 108,-106.8 166.8,-248.4 166.8,-400.8 0,-310.8 -252,-562.8 -562.8,-562.8l-1322.4 0 0 1126.8zm0 -2098.8l0 723.6 1190.4 0c298.8,0 541.2,-242.4 541.2,-541.2 0,-298.8 -240,-537.6 -535.2,-541.2l-1196.4 4.8 0 -250.8 1198.8 -2.4c430.8,4.8 780,358.8 780,789.6 0,252 -118.8,477.6 -303.6,621.6 271.2,132 458.4,409.2 458.4,730.8 0,218.4 -85.2,423.6 -241.2,576 -153.6,151.2 -355.2,235.2 -570,235.2 -2.4,0 -6,0 -8.4,0l-1562.4 0 0 -2346 248.4 0z"/>
  <path class="fil2" d="M19431.09 23557.09c0,-228 165.6,-387.6 393.6,-387.6 129.6,0 238.8,50.4 300,151.2l-76.8 52.8c-52.8,-76.8 -133.2,-114 -222,-114 -166.8,0 -289.2,118.8 -289.2,297.6 0,178.8 122.4,297.6 289.2,297.6 88.8,0 170.4,-34.8 222,-111.6l76.8 52.8c-61.2,98.4 -170.4,151.2 -300,151.2 -228,0 -393.6,-160.8 -393.6,-390z"/>
  <path class="fil2" d="M20527.89 23557.09c0,-226.8 165.6,-387.6 390,-387.6 224.4,0 387.6,160.8 387.6,387.6 0,226.8 -164.4,390 -387.6,390 -223.2,0 -390,-163.2 -390,-390zm673.2 0c0,-178.8 -121.2,-297.6 -283.2,-297.6 -162,0 -284.4,118.8 -284.4,297.6 0,178.8 122.4,297.6 284.4,297.6 162,0 283.2,-118.8 283.2,-297.6z"/>
  <path class="fil2" d="M22193.49 23168.29l0 100.8c-8.4,0 -18,-1.2 -25.2,-1.2 -159.6,0 -256.8,102 -256.8,282l0 390 -103.2 0 0 -764.4 98.4 0 0 150c48,-102 145.2,-156 286.8,-156l0 -1.2z"/>
  <path class="fil2" d="M23445.09 23557.09c0,232.8 -163.2,390 -380.4,390 -122.4,0 -226.8,-52.8 -290.4,-151.2l0 426 -103.2 0 0 -1046.4 98.4 0 0 151.2c62.4,-102 169.2,-157.2 295.2,-157.2 218.4,0 380.4,157.2 380.4,387.6zm-103.2 0c0,-177.6 -123.6,-297.6 -284.4,-297.6 -160.8,0 -284.4,121.2 -284.4,297.6 0,176.4 122.4,297.6 284.4,297.6 162,0 284.4,-118.8 284.4,-297.6z"/>
  <path class="fil3" d="M20670.69 17408.29l-5594.4 -9688.8c-66,-114 -229.2,-114 -295.2,0l-5594.4 9688.8c-43.2,75.6 40.8,159.6 116.4,116.4l1239.6 -716.4c64.8,-37.2 118.8,-91.2 156,-156l4155.6 -7197.6c32.4,-56.4 115.2,-56.4 147.6,0l4155.6 7197.6c37.2,64.8 91.2,118.8 156,156l1239.6 716.4c75.6,43.2 159.6,-40.8 116.4,-116.4l1.2 0z"/>
  <path class="fil0" d="M16305.09 4852.69l-1291.2 -745.2c-52.8,-30 -117.6,-30 -170.4,0l-1291.2 745.2c-64.8,37.2 -118.8,91.2 -156,156l-7233.6 12528c-46.8,81.6 -19.2,186 62.4,232.8l1179.6 681.6c81.6,46.8 186,19.2 232.8,-62.4l7142.4 -12372c66,-114 229.2,-114 295.2,0l7142.4 12372c46.8,81.6 151.2,109.2 232.8,62.4l1179.6 -681.6c81.6,-46.8 109.2,-151.2 62.4,-232.8l-7233.6 -12528c-37.2,-64.8 -91.2,-118.8 -156,-156l2.4 0z"/>
 </g>
</svg>
